<?xml version="1.0" encoding="iso-8859-1"?>
<!-- Generator: Adobe Illustrator 22.0.0, SVG Export Plug-In . SVG Version: 6.00 Build 0)  -->
<svg version="1.1" id="Layer_1" xmlns="http://www.w3.org/2000/svg" xmlns:xlink="http://www.w3.org/1999/xlink" x="0px" y="0px"
	 viewBox="0 0 110 110" style="enable-background:new 0 0 110 110;" xml:space="preserve">
<g>
	<g>
		<rect x="26.221" y="76.076" style="fill:none;" width="57.558" height="9.366"/>
		<path d="M30.113,83.531l-1.169,0.032c-0.039-0.043-0.051-0.103-0.037-0.178s0.027-0.12,0.037-0.134
			c0.19,0,0.348-0.021,0.474-0.062c0.126-0.042,0.194-0.078,0.204-0.11c0.033-0.118,0.049-0.384,0.049-0.795v-4.587
			c0-0.416-0.017-0.681-0.049-0.795c-0.02-0.079-0.208-0.135-0.564-0.167c-0.049-0.003-0.087-0.005-0.113-0.005
			c-0.036-0.047-0.048-0.106-0.037-0.18c0.011-0.074,0.023-0.118,0.037-0.132c0.675,0.035,1.061,0.054,1.159,0.054l3.163-0.075
			l0.285,1.461c-0.036,0.035-0.094,0.053-0.174,0.051c-0.081-0.002-0.127-0.026-0.14-0.072c-0.128-0.502-0.342-0.813-0.644-0.935
			c-0.134-0.051-0.299-0.075-0.496-0.075h-0.845c-0.416,0.003-0.642,0.043-0.678,0.118c-0.04,0.14-0.056,0.394-0.049,0.763v2.009
			c-0.003,0.043,0.138,0.064,0.422,0.064h0.521c0.413,0,0.669-0.028,0.771-0.083c0.102-0.056,0.177-0.172,0.226-0.347
			c0.013-0.043,0.041-0.158,0.083-0.344c0.013-0.051,0.061-0.074,0.142-0.072c0.082,0.001,0.139,0.019,0.172,0.051v2.03
			c-0.029,0.028-0.083,0.042-0.162,0.04c-0.078-0.002-0.129-0.029-0.152-0.083c-0.092-0.387-0.167-0.609-0.226-0.666
			c-0.013-0.015-0.029-0.029-0.049-0.043c-0.085-0.058-0.397-0.086-0.938-0.086c-0.54,0-0.811,0.032-0.811,0.097v2.041
			c-0.013,0.43,0.007,0.677,0.059,0.741c0.079,0.064,0.184,0.099,0.317,0.102c0.132,0.004,0.259,0.006,0.38,0.006h0.472
			c0.53,0,0.943-0.097,1.238-0.29c0.193-0.126,0.362-0.38,0.506-0.763c0.029-0.079,0.067-0.187,0.113-0.322
			c0.013-0.043,0.07-0.064,0.169-0.064c0.1,0,0.171,0.021,0.214,0.064c-0.029,0.093-0.116,0.354-0.26,0.781s-0.234,0.762-0.27,1.002
			L30.113,83.531z"/>
		<path d="M38.545,83.563c-0.671-0.036-1.021-0.054-1.048-0.054s-0.376,0.018-1.044,0.054c-0.039-0.043-0.051-0.103-0.037-0.178
			s0.027-0.12,0.037-0.134c0.177,0,0.322-0.021,0.435-0.062c0.113-0.042,0.174-0.078,0.184-0.11
			c0.033-0.118,0.049-0.384,0.049-0.795V80.33c0-0.315-0.016-0.516-0.049-0.602c-0.065-0.122-0.278-0.187-0.639-0.193
			c-0.02-0.021-0.027-0.069-0.022-0.143s0.012-0.119,0.022-0.137c0.56-0.086,1.028-0.236,1.405-0.451
			c0.036,0,0.063,0.024,0.081,0.075c0.018,0.05,0.027,0.082,0.027,0.097c-0.039,0.293-0.058,0.476-0.056,0.545
			c0.001,0.07,0.007,0.106,0.017,0.11c0.01-0.004,0.02-0.011,0.029-0.021c0.15-0.183,0.362-0.359,0.634-0.529
			c0.271-0.17,0.502-0.255,0.692-0.255c0.484,0,0.815,0.159,0.992,0.478c0.183,0.333,0.275,0.933,0.275,1.8v1.182
			c0,0.415,0.017,0.68,0.049,0.795c0.02,0.078,0.19,0.134,0.511,0.166c0.046,0.004,0.082,0.006,0.108,0.006
			c0.036,0.046,0.048,0.106,0.037,0.18c-0.012,0.073-0.024,0.117-0.037,0.132c-0.671-0.036-1.021-0.054-1.048-0.054
			s-0.376,0.018-1.044,0.054c-0.039-0.043-0.051-0.103-0.037-0.178s0.027-0.12,0.037-0.134c0.177,0,0.322-0.021,0.435-0.062
			c0.113-0.042,0.174-0.078,0.185-0.11c0.033-0.118,0.049-0.384,0.049-0.795v-1.074c0-0.706-0.071-1.176-0.213-1.41
			c-0.143-0.234-0.393-0.352-0.749-0.352c-0.197,0-0.4,0.087-0.612,0.261c-0.211,0.173-0.318,0.283-0.322,0.33v2.245
			c0,0.415,0.017,0.68,0.049,0.795c0.02,0.078,0.19,0.134,0.511,0.166c0.046,0.004,0.082,0.006,0.108,0.006
			c0.036,0.046,0.048,0.106,0.037,0.18C38.571,83.505,38.559,83.549,38.545,83.563z"/>
		<path d="M44.723,81.963c-0.239,0.143-0.36,0.301-0.363,0.473c0,0.075,0.056,0.156,0.169,0.244c0.113,0.088,0.253,0.132,0.42,0.132
			h1.159c0.413,0,0.769,0.117,1.068,0.352c0.3,0.234,0.45,0.512,0.452,0.833c0.001,0.32-0.174,0.676-0.528,1.065
			c-0.354,0.391-0.8,0.661-1.341,0.812c-0.73,0.2-1.352,0.118-1.866-0.247c-0.341-0.251-0.513-0.573-0.516-0.967
			c0-0.298,0.253-0.614,0.761-0.951c0.095-0.061,0.188-0.116,0.28-0.166c-0.275-0.097-0.478-0.242-0.609-0.436
			s-0.196-0.381-0.196-0.563c0.177-0.226,0.458-0.47,0.845-0.73c-0.314-0.19-0.545-0.459-0.693-0.806
			c-0.082-0.193-0.123-0.384-0.123-0.569c0-0.412,0.147-0.775,0.442-1.091c0.347-0.34,0.753-0.518,1.218-0.531
			c0.177,0,0.315,0.017,0.415,0.051c0.1,0.034,0.167,0.057,0.201,0.067c0.035,0.011,0.089,0.032,0.165,0.064l0.113,0.054
			c0.085,0.035,0.16,0.061,0.226,0.075l1.051-0.161c0.062,0.024,0.094,0.067,0.096,0.129c0.001,0.061-0.028,0.141-0.088,0.239
			c-0.061,0.098-0.105,0.158-0.135,0.18l-0.648-0.043c-0.023,0.003-0.036,0.014-0.04,0.032c0.056,0.061,0.115,0.192,0.179,0.395
			s0.096,0.396,0.096,0.583c0,0.354-0.144,0.696-0.432,1.025c-0.324,0.369-0.733,0.554-1.228,0.554
			C45.06,82.06,44.877,82.027,44.723,81.963z M46.953,84.401c0-0.183-0.107-0.366-0.322-0.551c-0.215-0.185-0.567-0.276-1.059-0.276
			s-0.768,0.018-0.83,0.054c-0.255,0.157-0.432,0.327-0.53,0.51c-0.04,0.075-0.059,0.146-0.059,0.21
			c0,0.422,0.157,0.744,0.472,0.967c0.226,0.157,0.509,0.236,0.85,0.236c0.34,0,0.665-0.113,0.973-0.339
			C46.781,84.965,46.95,84.694,46.953,84.401z M46.02,81.237c0.105-0.218,0.157-0.499,0.157-0.843s-0.091-0.639-0.272-0.884
			s-0.41-0.369-0.685-0.37c-0.275-0.002-0.495,0.165-0.658,0.502c-0.108,0.226-0.162,0.506-0.162,0.841
			c0,0.334,0.094,0.626,0.282,0.875c0.188,0.249,0.418,0.374,0.69,0.376C45.643,81.736,45.859,81.57,46.02,81.237z"/>
		<path d="M50.989,82.672c0.082,0.136,0.123,0.284,0.123,0.445s-0.063,0.29-0.187,0.387s-0.258,0.146-0.402,0.146
			c-0.145,0-0.262-0.07-0.354-0.21s-0.137-0.291-0.137-0.453c0-0.163,0.064-0.29,0.194-0.382c0.129-0.091,0.269-0.137,0.417-0.137
			S50.907,82.535,50.989,82.672z"/>
		<path d="M55.094,82.532c0.285,0.265,0.63,0.397,1.036,0.397c0.406,0,0.762-0.19,1.065-0.569c0.017,0,0.033,0.018,0.05,0.054
			c0.039,0.082,0.029,0.179-0.029,0.29c-0.164,0.29-0.377,0.515-0.639,0.674c-0.263,0.159-0.527,0.239-0.796,0.239
			c-0.573,0-1.043-0.212-1.41-0.634c-0.363-0.434-0.547-0.968-0.55-1.604c-0.003-0.636,0.165-1.183,0.506-1.641
			c0.449-0.605,0.923-0.91,1.424-0.913c0.593,0,1.02,0.245,1.281,0.735c0.128,0.244,0.192,0.498,0.192,0.763
			c0,0.301-0.079,0.457-0.236,0.468c-0.406,0.028-1.231,0.054-2.475,0.075C54.498,81.601,54.691,82.156,55.094,82.532z
			 M54.563,80.47h1.601c0.141,0,0.216-0.083,0.224-0.25c0.008-0.166-0.042-0.352-0.149-0.556c-0.161-0.298-0.378-0.448-0.653-0.451
			c-0.154,0-0.295,0.043-0.422,0.129c-0.128,0.086-0.229,0.19-0.302,0.314c-0.074,0.123-0.134,0.247-0.182,0.37
			c-0.047,0.124-0.08,0.229-0.098,0.314S54.557,80.47,54.563,80.47z"/>
		<path d="M61.929,83.563c-0.671-0.036-1.021-0.054-1.048-0.054c-0.028,0-0.376,0.018-1.044,0.054
			c-0.039-0.043-0.052-0.103-0.037-0.178s0.027-0.12,0.037-0.134c0.177,0,0.321-0.021,0.435-0.062
			c0.113-0.042,0.175-0.078,0.185-0.11c0.032-0.118,0.049-0.384,0.049-0.795V80.33c0-0.315-0.017-0.516-0.049-0.602
			c-0.065-0.122-0.278-0.187-0.639-0.193c-0.02-0.021-0.027-0.069-0.022-0.143s0.013-0.119,0.022-0.137
			c0.56-0.086,1.028-0.236,1.404-0.451c0.036,0,0.063,0.024,0.081,0.075c0.019,0.05,0.027,0.082,0.027,0.097
			c-0.039,0.293-0.059,0.476-0.057,0.545c0.002,0.07,0.008,0.106,0.018,0.11c0.01-0.004,0.02-0.011,0.029-0.021
			c0.15-0.183,0.361-0.359,0.634-0.529c0.271-0.17,0.502-0.255,0.692-0.255c0.484,0,0.815,0.159,0.992,0.478
			c0.183,0.333,0.274,0.933,0.274,1.8v1.182c0,0.415,0.017,0.68,0.05,0.795c0.02,0.078,0.189,0.134,0.511,0.166
			c0.046,0.004,0.081,0.006,0.107,0.006c0.036,0.046,0.049,0.106,0.037,0.18s-0.023,0.117-0.037,0.132
			c-0.671-0.036-1.021-0.054-1.048-0.054c-0.028,0-0.376,0.018-1.044,0.054c-0.039-0.043-0.052-0.103-0.037-0.178
			s0.027-0.12,0.037-0.134c0.177,0,0.321-0.021,0.435-0.062c0.113-0.042,0.174-0.078,0.185-0.11
			c0.032-0.118,0.049-0.384,0.049-0.795v-1.074c0-0.706-0.071-1.176-0.214-1.41s-0.393-0.352-0.749-0.352
			c-0.196,0-0.4,0.087-0.611,0.261c-0.211,0.173-0.318,0.283-0.322,0.33v2.245c0,0.415,0.017,0.68,0.05,0.795
			c0.02,0.078,0.189,0.134,0.511,0.166c0.046,0.004,0.082,0.006,0.107,0.006c0.036,0.046,0.049,0.106,0.037,0.18
			S61.942,83.549,61.929,83.563z"/>
		<path d="M68.106,81.963c-0.239,0.143-0.36,0.301-0.363,0.473c0,0.075,0.057,0.156,0.17,0.244c0.112,0.088,0.253,0.132,0.42,0.132
			h1.158c0.413,0,0.77,0.117,1.068,0.352c0.3,0.234,0.45,0.512,0.452,0.833c0.002,0.32-0.174,0.676-0.528,1.065
			c-0.354,0.391-0.8,0.661-1.341,0.812c-0.729,0.2-1.352,0.118-1.866-0.247c-0.341-0.251-0.513-0.573-0.516-0.967
			c0-0.298,0.254-0.614,0.762-0.951c0.095-0.061,0.188-0.116,0.279-0.166c-0.274-0.097-0.478-0.242-0.608-0.436
			s-0.196-0.381-0.196-0.563c0.177-0.226,0.458-0.47,0.845-0.73c-0.314-0.19-0.546-0.459-0.693-0.806
			c-0.081-0.193-0.122-0.384-0.122-0.569c0-0.412,0.147-0.775,0.441-1.091c0.348-0.34,0.754-0.518,1.219-0.531
			c0.177,0,0.314,0.017,0.415,0.051c0.1,0.034,0.167,0.057,0.201,0.067s0.089,0.032,0.164,0.064l0.113,0.054
			c0.085,0.035,0.16,0.061,0.226,0.075l1.052-0.161c0.062,0.024,0.094,0.067,0.096,0.129c0.001,0.061-0.028,0.141-0.089,0.239
			c-0.061,0.098-0.105,0.158-0.135,0.18l-0.648-0.043c-0.022,0.003-0.036,0.014-0.039,0.032c0.056,0.061,0.115,0.192,0.179,0.395
			c0.064,0.202,0.096,0.396,0.096,0.583c0,0.354-0.144,0.696-0.432,1.025c-0.324,0.369-0.733,0.554-1.229,0.554
			C68.443,82.06,68.261,82.027,68.106,81.963z M70.337,84.401c0-0.183-0.107-0.366-0.322-0.551s-0.567-0.276-1.059-0.276
			s-0.768,0.018-0.83,0.054c-0.255,0.157-0.432,0.327-0.53,0.51c-0.039,0.075-0.059,0.146-0.059,0.21
			c0,0.422,0.157,0.744,0.472,0.967c0.226,0.157,0.509,0.236,0.85,0.236c0.34,0,0.664-0.113,0.973-0.339
			C70.165,84.965,70.333,84.694,70.337,84.401z M69.403,81.237c0.104-0.218,0.157-0.499,0.157-0.843s-0.091-0.639-0.272-0.884
			s-0.41-0.369-0.686-0.37c-0.274-0.002-0.494,0.165-0.658,0.502c-0.107,0.226-0.162,0.506-0.162,0.841
			c0,0.334,0.095,0.626,0.282,0.875c0.188,0.249,0.419,0.374,0.69,0.376S69.243,81.57,69.403,81.237z"/>
		<path d="M74.613,82.532c0.284,0.265,0.63,0.397,1.036,0.397s0.762-0.19,1.065-0.569c0.017,0,0.033,0.018,0.05,0.054
			c0.039,0.082,0.029,0.179-0.029,0.29c-0.164,0.29-0.377,0.515-0.639,0.674c-0.263,0.159-0.527,0.239-0.796,0.239
			c-0.573,0-1.043-0.212-1.41-0.634c-0.363-0.434-0.547-0.968-0.55-1.604s0.165-1.183,0.506-1.641
			c0.449-0.605,0.924-0.91,1.425-0.913c0.593,0,1.02,0.245,1.281,0.735c0.128,0.244,0.192,0.498,0.192,0.763
			c0,0.301-0.079,0.457-0.236,0.468c-0.406,0.028-1.231,0.054-2.476,0.075C74.017,81.601,74.21,82.156,74.613,82.532z M74.083,80.47
			h1.601c0.141,0,0.216-0.083,0.224-0.25c0.008-0.166-0.042-0.352-0.149-0.556c-0.161-0.298-0.379-0.448-0.653-0.451
			c-0.154,0-0.295,0.043-0.423,0.129s-0.229,0.19-0.302,0.314c-0.074,0.123-0.135,0.247-0.182,0.37
			c-0.048,0.124-0.08,0.229-0.099,0.314C74.082,80.427,74.076,80.47,74.083,80.47z"/>
		<path d="M80.741,76.248c-0.072,0.34-0.107,0.651-0.107,0.935v5.103c0,0.415,0.016,0.68,0.049,0.795
			c0.02,0.078,0.189,0.134,0.511,0.166c0.046,0.004,0.082,0.006,0.108,0.006c0.035,0.046,0.048,0.106,0.036,0.18
			c-0.011,0.073-0.023,0.117-0.036,0.132c-0.672-0.036-1.021-0.054-1.049-0.054c-0.028,0-0.376,0.018-1.044,0.054
			c-0.039-0.043-0.052-0.103-0.037-0.178s0.027-0.12,0.037-0.134c0.177,0,0.321-0.021,0.435-0.062
			c0.113-0.042,0.175-0.078,0.185-0.11c0.032-0.118,0.049-0.384,0.049-0.795v-4.748c0-0.287-0.022-0.483-0.066-0.591
			s-0.238-0.161-0.582-0.161c-0.013,0-0.018-0.045-0.015-0.135c0.003-0.089,0.012-0.138,0.024-0.145
			c0.452-0.051,0.917-0.193,1.396-0.43c0.039,0,0.066,0.023,0.083,0.069C80.733,76.192,80.741,76.227,80.741,76.248z"/>
	</g>
	<path d="M56.403,48.133v0.008c0.014-0.012,0.029-0.02,0.043-0.024C56.432,48.121,56.417,48.129,56.403,48.133z"/>
	<g>
		<path d="M22.587,66.936c-0.047,0.035-0.1,0.067-0.161,0.102l0.154-0.114C22.58,66.929,22.583,66.932,22.587,66.936z"/>
		<path d="M46.103,25.515c-0.079-0.125-0.151-0.243-0.215-0.349c-0.004-0.008-0.007-0.016-0.014-0.02
			c-0.05-0.055-0.104-0.106-0.158-0.153c-0.161-0.141-0.344-0.251-0.541-0.325l0.703-0.012l0.201,0.757L46.103,25.515z"/>
		<path d="M45.874,25.146c-0.05-0.055-0.104-0.106-0.158-0.153c0.022,0,0.047-0.004,0.068-0.004
			C45.813,25.04,45.841,25.091,45.874,25.146z"/>
		<path d="M46.412,26.566v0.114l-0.308-1.165c0.047,0.071,0.093,0.141,0.143,0.22C46.354,25.989,46.412,26.268,46.412,26.566z"/>
		<path d="M21.989,67.247c-0.142,0.059-0.302,0.119-0.48,0.181"/>
		<path d="M22.425,67.039c-0.118,0.067-0.264,0.136-0.435,0.207"/>
		<path d="M22.741,66.803c-0.039,0.043-0.09,0.09-0.154,0.133c-0.047,0.035-0.1,0.067-0.161,0.102l0.154-0.114L22.741,66.803z"/>
		<path d="M101.448,50.337c-5.085,0.224-7.928,0.337-8.513,0.337c-0.57,0-3.432-0.114-8.534-0.337
			c-0.1,0.078-0.186,0.369-0.29,0.835c-0.086,0.467,0.018,0.851,0.29,1.157c0.19,0,0.484,0,0.846,0.031
			c2.654,0.208,4.066,0.561,4.206,1.063c0.258,0.737,0.38,2.423,0.38,5.09v6.941c0,0.498-0.172,0.855-0.52,1.031
			c-2.955,1.369-5.777,2.106-8.477,2.192l0.065,2.227c5.397-0.208,9.85-1.176,13.361-2.91c1.811-0.886,2.722-1.478,2.722-1.753
			c0-0.224-0.118-0.627-0.377-1.204c-0.244-0.565-0.362-1.125-0.362-1.655v-4.87c0-2.635,0.118-4.337,0.362-5.09
			c0.068-0.212,0.567-0.435,1.445-0.71c0.896-0.255,2.037-0.384,3.396-0.384c0.072-0.098,0.172-0.384,0.276-0.867
			C101.846,50.98,101.742,50.608,101.448,50.337z"/>
		<path d="M96.449,36.44c0-0.051,0-0.129-0.032-0.243l-1.671-9.929c-4.701-0.941-9.843-1.423-15.405-1.447h-0.387
			c-2.205,0-4.393,0.243-6.498,0.773c-0.19,0.016-0.362,0.063-0.534,0.114c-0.05,0-0.1,0.016-0.154,0.047
			c-0.068,0.016-0.136,0.047-0.208,0.098c-0.706,0.353-1.187,1.059-1.187,1.878l0.014,31.438l-0.434-0.533v0.063
			c-0.075-0.11-0.161-0.239-0.251-0.369l-0.029-0.047c-0.308-0.467-0.645-0.965-0.997-1.51c-2.528-3.678-6.451-9.125-11.787-16.309
			c-5.641-7.564-9.191-12.474-10.643-14.729c0.108,0.255,0.165,0.533,0.165,0.831v0.114l-0.308-1.165
			c-0.079-0.125-0.151-0.243-0.215-0.349c-0.004-0.008-0.007-0.016-0.014-0.02c-0.05-0.055-0.104-0.106-0.158-0.153
			c-0.161-0.141-0.344-0.251-0.541-0.325l-1.926,0.035l-24.66,0.443c-0.846,0-4.178-0.114-9.99-0.341
			c-0.122,0.082-0.222,0.357-0.323,0.831c-0.1,0.474,0,0.851,0.323,1.141c0.222,0,0.545,0.02,0.968,0.035
			c3.07,0.212,4.705,0.573,4.866,1.059c0.28,0.737,0.423,2.435,0.423,5.078v29.269c0,2.631-0.143,4.329-0.423,5.078
			c-0.082,0.212-0.667,0.443-1.757,0.702c-1.09,0.263-2.442,0.392-4.077,0.392c-0.1,0.098-0.201,0.376-0.323,0.867
			c-0.122,0.471-0.022,0.847,0.323,1.125l10.073-0.212l25.263,0.243l3.64,0.035c0.05-0.239,0.111-0.494,0.183-0.761l-1.352-1.18
			c0.004-0.055,0.007-0.114,0.007-0.169V35.958l23.541,32.814c0.764,1.047,1.47,1.561,2.13,1.561c0.029,0,0.057-0.004,0.082-0.004
			c1.997,0.412,4.142,0.623,6.43,0.623c0.785,0,1.556-0.016,2.306-0.047l-0.065-2.227c-0.179,0.004-0.359,0.008-0.538,0.008
			c-1.635,0-3.188-0.161-4.637-0.482V27.73c0-0.098,0-0.192-0.032-0.275c1.173-0.239,2.413-0.369,3.704-0.369
			c8.344,0.016,13.203,3.372,14.602,10.043c0.48,0.29,1.137,0.29,1.965-0.031C96.313,36.903,96.503,36.695,96.449,36.44z
			 M42.094,66.583c-2.395,0.847-5.486,1.271-9.255,1.271h-4.077c-1.051,0-2.141-0.016-3.288-0.035
			c-1.133-0.031-2.04-0.243-2.725-0.651c-0.057-0.055-0.115-0.133-0.161-0.231c-0.047,0.035-0.1,0.067-0.161,0.102l0.154-0.114
			c-0.319-0.635-0.441-2.129-0.337-4.49V49.404c0-0.408,2.32-0.62,6.982-0.62c4.665,0,7.369,0.18,8.097,0.557
			c0.179,0.082,0.323,0.18,0.423,0.278c0.502,0.357,1.169,1.776,1.958,4.243c0.201,0.341,0.624,0.522,1.312,0.522h0.161
			c0.377,0,0.685-0.035,0.918-0.102V66.583z M42.094,41.024c-0.283-0.102-0.667-0.161-1.162-0.173
			c-0.706-0.016-1.13,0.149-1.23,0.474c-0.366,1.176-0.606,1.91-0.728,2.188c-0.423,1.11-1.069,1.859-1.958,2.204
			c-0.868,0.357-3.087,0.537-6.641,0.537h-4.5c-2.442,0-3.672-0.145-3.633-0.408V33.016c-0.061-2.353,0.079-3.968,0.423-4.866
			c0.305-0.474,2.263-0.733,5.834-0.749h7.304c1.696,0,3.109,0.161,4.282,0.471c0.728,0.22,1.395,0.537,2.008,0.957V41.024z"/>
		<path d="M45.174,24.668l-1.926,0.035c0.212-0.094,0.445-0.145,0.685-0.145h0.642C44.787,24.558,44.988,24.597,45.174,24.668z"/>
		<path d="M46.412,26.566v0.114l-0.308-1.165c-0.079-0.125-0.151-0.243-0.215-0.349c0.072,0.074,0.133,0.157,0.19,0.247
			c0.065,0.102,0.122,0.208,0.169,0.322C46.354,25.989,46.412,26.268,46.412,26.566z"/>
	</g>
	<line style="fill:none;" x1="56.424" y1="49.245" x2="56.424" y2="47.762"/>
	
		<image style="overflow:visible;" width="512" height="512" xlink:href="../Documents/robot-icon.png"  transform="matrix(0.0216 0 0 0.0236 89.069 39.4876)">
	</image>
</g>
<g>
</g>
<g>
</g>
<g>
</g>
<g>
</g>
<g>
</g>
<g>
</g>
</svg>
